<svg width="18" height="19" viewBox="0 0 18 19" fill="none" xmlns="http://www.w3.org/2000/svg">
<path d="M17.8215 9.73157C17.8218 8.03886 17.3371 6.38147 16.4248 4.95569C15.5124 3.52991 14.2105 2.39542 12.6734 1.68652C11.1362 0.977725 9.42812 0.724189 7.75136 0.956025C6.07459 1.18775 4.49934 1.89521 3.21218 2.99461C1.92502 4.09389 0.979849 5.53904 0.488499 7.1589C-0.00285123 8.77876 -0.0196804 10.5055 0.439895 12.1346C0.89958 13.7638 1.81641 15.2271 3.08187 16.3513C4.34733 17.4755 5.90852 18.2135 7.58041 18.478V12.2913H5.33181V9.73157H7.58041V7.77968C7.53203 7.32409 7.5844 6.8633 7.73386 6.43018C7.88344 5.99707 8.12635 5.60215 8.44554 5.27333C8.76461 4.94462 9.15222 4.68998 9.58069 4.52778C10.0093 4.36547 10.4682 4.29938 10.9251 4.33425C11.5894 4.343 12.2521 4.40079 12.908 4.50696V6.68914H11.792C11.6019 6.66434 11.4086 6.6825 11.2265 6.7424C11.0443 6.8024 10.878 6.90249 10.7399 7.03535C10.6017 7.1682 10.4951 7.33051 10.4281 7.51009C10.3611 7.68978 10.3353 7.8822 10.3527 8.07307V9.73379H12.8094L12.4164 12.2935H10.3483V18.4835C12.4321 18.1539 14.33 17.0912 15.7 15.4867C17.0701 13.8822 17.8224 11.8415 17.8215 9.73157Z" fill="#F3F4F8"/>
</svg>
