<svg width="19" height="19" viewBox="0 0 19 19" fill="none" xmlns="http://www.w3.org/2000/svg">
<path d="M13.9105 6.30052C14.4975 6.30052 14.9734 5.82467 14.9734 5.23766C14.9734 4.65065 14.4975 4.1748 13.9105 4.1748C13.3235 4.1748 12.8477 4.65065 12.8477 5.23766C12.8477 5.82467 13.3235 6.30052 13.9105 6.30052Z" fill="#F3F4F8"/>
<path d="M9.32139 14.2141C6.87904 14.2141 4.89282 12.2279 4.89282 9.7855C4.89282 7.34315 6.87904 5.35693 9.32139 5.35693C11.7638 5.35693 13.75 7.34315 13.75 9.7855C13.75 12.2279 11.7638 14.2141 9.32139 14.2141ZM9.32139 7.57122C8.10021 7.57122 7.10711 8.56433 7.10711 9.7855C7.10711 11.0067 8.10021 11.9998 9.32139 11.9998C10.5426 11.9998 11.5357 11.0067 11.5357 9.7855C11.5357 8.56433 10.5426 7.57122 9.32139 7.57122Z" fill="#F3F4F8"/>
<path d="M13.75 18.6425H4.89287C2.61658 18.6425 0.464294 16.4902 0.464294 14.2139V5.35679C0.464294 3.08051 2.61658 0.928223 4.89287 0.928223H13.75C16.0263 0.928223 18.1786 3.08051 18.1786 5.35679V14.2139C18.1786 16.4902 16.0263 18.6425 13.75 18.6425ZM4.89287 3.14251C3.85769 3.14251 2.67858 4.32162 2.67858 5.35679V14.2139C2.67858 15.269 3.83776 16.4282 4.89287 16.4282H13.75C14.7852 16.4282 15.9643 15.2491 15.9643 14.2139V5.35679C15.9643 4.32162 14.7852 3.14251 13.75 3.14251H4.89287Z" fill="#F3F4F8"/>
</svg>
