<svg width="43" height="42" viewBox="0 0 43 42" fill="none" xmlns="http://www.w3.org/2000/svg">
<rect x="0.804016" y="0.140625" width="41.5" height="41.5" rx="8" fill="#F7F7FF"/>
<path d="M21.554 11.7406C20.9189 11.7406 20.404 12.2555 20.404 12.8906V28.8906C20.404 29.5258 20.9189 30.0406 21.554 30.0406C22.1891 30.0406 22.704 29.5258 22.704 28.8906V12.8906C22.704 12.2555 22.1891 11.7406 21.554 11.7406Z" fill="#001A35" stroke="#001A35" stroke-width="0.3" stroke-linecap="round"/>
<path d="M13.554 19.7406C12.9189 19.7406 12.404 20.2555 12.404 20.8906C12.404 21.5258 12.9189 22.0406 13.554 22.0406H29.554C30.1891 22.0406 30.704 21.5258 30.704 20.8906C30.704 20.2555 30.1891 19.7406 29.554 19.7406H13.554Z" fill="#001A35" stroke="#001A35" stroke-width="0.3" stroke-linecap="round"/>
</svg>
