<svg width="19" height="15" viewBox="0 0 19 15" fill="none" xmlns="http://www.w3.org/2000/svg">
<path d="M18.4643 1.69587C17.8001 2.02801 17.1358 2.13873 16.3608 2.24944C17.1358 1.80658 17.6893 1.1423 17.9108 0.256585C17.2465 0.699442 16.4715 0.920871 15.5858 1.1423C14.9215 0.478013 13.9251 0.0351562 12.9286 0.0351562C11.0465 0.0351562 9.38577 1.69587 9.38577 3.68873C9.38577 4.02087 9.38577 4.2423 9.49649 4.46373C6.5072 4.35301 3.73935 2.91373 1.96792 0.699442C1.63578 1.25301 1.52506 1.80658 1.52506 2.58158C1.52506 3.79944 2.18935 4.90659 3.18578 5.57087C2.6322 5.57087 2.07863 5.34944 1.52506 5.12801C1.52506 6.89944 2.74292 8.33873 4.40363 8.67087C4.07149 8.78158 3.73935 8.78158 3.4072 8.78158C3.18577 8.78158 2.96435 8.78158 2.74292 8.67087C3.18578 10.1102 4.51435 11.2173 6.17506 11.2173C4.9572 12.2137 3.4072 12.7673 1.63578 12.7673C1.30363 12.7673 1.0822 12.7673 0.750061 12.7673C2.41078 13.7637 4.29292 14.428 6.28578 14.428C12.9286 14.428 16.5822 8.8923 16.5822 4.13159C16.5822 4.02087 16.5822 3.79944 16.5822 3.68873C17.3572 3.13516 18.0215 2.47087 18.4643 1.69587Z" fill="#F3F4F8"/>
</svg>
