<svg width="157" height="113" viewBox="0 0 157 113" fill="none" xmlns="http://www.w3.org/2000/svg">
<path opacity="0.3" d="M121.776 46.8108C112.455 46.8108 104.649 49.3374 98.5512 54.5019C98.5284 53.8538 98.5163 53.1478 98.5163 52.3818C98.5163 48.2719 99.0617 44.8173 100.086 41.9673L100.1 41.9279L100.113 41.8881C101.821 36.587 104.825 31.5482 109.194 26.7732C113.796 21.7665 118.91 17.9936 124.535 15.4144L126.892 14.3338L125.726 12.018L122.635 5.8761L121.551 3.72271L119.36 4.7275C107.058 10.3683 97.612 18.4135 91.1417 28.8889C84.7142 39.295 81.4953 50.6693 81.4953 62.9594C81.4953 69.9784 82.3195 76.4659 83.9933 82.4045C85.6424 88.2557 87.802 93.0959 90.5416 96.8207C96.8362 106.047 106.744 110.5 119.715 110.5C129.804 110.5 138.218 107.744 144.72 102.03L144.74 102.012L144.76 101.995C151.283 96.0121 154.5 88.1508 154.5 78.6554C154.5 68.8281 151.589 60.9217 145.461 55.329C139.41 49.579 131.425 46.8108 121.776 46.8108ZM42.7804 46.8108C33.4595 46.8108 25.6535 49.3374 19.5559 54.5019C19.5331 53.8538 19.521 53.1478 19.521 52.3818C19.521 48.2719 20.0664 44.8173 21.0909 41.9673L21.1051 41.9279L21.1179 41.8881C22.8253 36.5873 25.8289 31.5489 30.1978 26.7741C34.8 21.7669 39.9142 17.9938 45.5397 15.4144L47.8963 14.3338L46.7308 12.018L43.6397 5.8761L42.5559 3.72271L40.3645 4.7275C28.0625 10.3683 18.6167 18.4135 12.1464 28.8889C5.71887 39.295 2.5 50.6693 2.5 62.9594C2.5 69.9784 3.3242 76.4659 4.99795 82.4045C6.64704 88.2557 8.80668 93.0959 11.5463 96.8207C17.8409 106.047 27.7487 110.5 40.7196 110.5C50.8083 110.5 59.2231 107.744 65.7251 102.03L65.745 102.012L65.7645 101.995C72.2881 96.0121 75.5047 88.1508 75.5047 78.6554C75.5047 68.8282 72.5938 60.9218 66.4655 55.3291C60.4148 49.5791 52.4295 46.8108 42.7804 46.8108Z" stroke="#001A35" stroke-width="5"/>
</svg>
