<svg width="26" height="26" viewBox="0 0 26 26" fill="none" xmlns="http://www.w3.org/2000/svg">
<path fill-rule="evenodd" clip-rule="evenodd" d="M1.0125 5.69376C1.0125 2.18254 1.0501 1.01251 5.69375 1.01251C10.3374 1.01251 10.375 2.18254 10.375 5.69376C10.375 9.20498 10.3898 10.375 5.69375 10.375C0.99769 10.375 1.0125 9.20498 1.0125 5.69376Z" stroke="#001A35" stroke-width="1.5" stroke-linecap="round" stroke-linejoin="round"/>
<path fill-rule="evenodd" clip-rule="evenodd" d="M15.725 5.69376C15.725 2.18254 15.7626 1.01251 20.4062 1.01251C25.0499 1.01251 25.0875 2.18254 25.0875 5.69376C25.0875 9.20498 25.1023 10.375 20.4062 10.375C15.7102 10.375 15.725 9.20498 15.725 5.69376Z" stroke="#001A35" stroke-width="1.5" stroke-linecap="round" stroke-linejoin="round"/>
<path fill-rule="evenodd" clip-rule="evenodd" d="M1.0125 20.4062C1.0125 16.895 1.0501 15.725 5.69375 15.725C10.3374 15.725 10.375 16.895 10.375 20.4062C10.375 23.9174 10.3898 25.0875 5.69375 25.0875C0.99769 25.0875 1.0125 23.9174 1.0125 20.4062Z" stroke="#001A35" stroke-width="1.5" stroke-linecap="round" stroke-linejoin="round"/>
<path fill-rule="evenodd" clip-rule="evenodd" d="M15.725 20.4062C15.725 16.895 15.7626 15.725 20.4062 15.725C25.0499 15.725 25.0875 16.895 25.0875 20.4062C25.0875 23.9174 25.1023 25.0875 20.4062 25.0875C15.7102 25.0875 15.725 23.9174 15.725 20.4062Z" stroke="#001A35" stroke-width="1.5" stroke-linecap="round" stroke-linejoin="round"/>
</svg>
