<svg width="30" height="30" viewBox="0 0 30 30" fill="none" xmlns="http://www.w3.org/2000/svg">
<path fill-rule="evenodd" clip-rule="evenodd" d="M24.5079 24.5059C20.4203 28.5939 14.3676 29.4771 9.41432 27.1864C8.6831 26.892 8.0836 26.6541 7.51367 26.6541C5.92622 26.6635 3.9503 28.2027 2.92336 27.177C1.89642 26.15 3.43683 24.1725 3.43683 22.5754C3.43683 22.0054 3.20832 21.4166 2.91395 20.684C0.622149 15.7315 1.50661 9.67677 5.59421 5.59007C10.8122 0.370105 19.2899 0.370105 24.5079 5.58872C29.7354 10.8167 29.726 19.2873 24.5079 24.5059Z" stroke="#001A35" stroke-width="2.87499" stroke-linecap="round" stroke-linejoin="round"/>
<path d="M20.319 15.6023H20.331" stroke="#001A35" stroke-width="3.83331" stroke-linecap="round" stroke-linejoin="round"/>
<path d="M14.9569 15.6023H14.9689" stroke="#001A35" stroke-width="3.83331" stroke-linecap="round" stroke-linejoin="round"/>
<path d="M9.59486 15.6023H9.6069" stroke="#001A35" stroke-width="3.83331" stroke-linecap="round" stroke-linejoin="round"/>
</svg>
