<svg width="30" height="24" viewBox="0 0 30 24" fill="none" xmlns="http://www.w3.org/2000/svg">
<path d="M22.8553 10.532C24.7157 10.2706 26.148 8.67561 26.152 6.7432C26.152 4.83879 24.7638 3.25979 22.9434 2.96106" stroke="#001A35" stroke-width="2.00043" stroke-linecap="round" stroke-linejoin="round"/>
<path d="M25.3103 15.0044C27.112 15.2738 28.3696 15.9046 28.3696 17.2049C28.3696 18.0997 27.7775 18.6812 26.82 19.0466" stroke="#001A35" stroke-width="2.00043" stroke-linecap="round" stroke-linejoin="round"/>
<path fill-rule="evenodd" clip-rule="evenodd" d="M14.8523 15.5559C10.5661 15.5559 6.9053 16.2054 6.9053 18.7993C6.9053 21.3918 10.5434 22.06 14.8523 22.06C19.1386 22.06 22.798 21.4172 22.798 18.8219C22.798 16.2267 19.1613 15.5559 14.8523 15.5559Z" stroke="#001A35" stroke-width="2.00043" stroke-linecap="round" stroke-linejoin="round"/>
<path fill-rule="evenodd" clip-rule="evenodd" d="M14.8523 11.8539C17.6649 11.8539 19.9454 9.57474 19.9454 6.76081C19.9454 3.94821 17.6649 1.66772 14.8523 1.66772C12.0397 1.66772 9.75925 3.94821 9.75925 6.76081C9.74858 9.56407 12.0117 11.8446 14.815 11.8539H14.8523Z" stroke="#001A35" stroke-width="2.00043" stroke-linecap="round" stroke-linejoin="round"/>
<path d="M6.84809 10.532C4.98636 10.2706 3.55539 8.67561 3.55139 6.7432C3.55139 4.83879 4.93969 3.25979 6.76008 2.96106" stroke="#001A35" stroke-width="2.00043" stroke-linecap="round" stroke-linejoin="round"/>
<path d="M4.39303 15.0044C2.59131 15.2738 1.33371 15.9046 1.33371 17.2049C1.33371 18.0997 1.92584 18.6812 2.88337 19.0466" stroke="#001A35" stroke-width="2.00043" stroke-linecap="round" stroke-linejoin="round"/>
</svg>
