<svg width="20" height="13" viewBox="0 0 20 13" fill="none" xmlns="http://www.w3.org/2000/svg">
<path d="M12.6154 6.75224C12.6154 7.91296 12.3726 8.94672 11.8871 9.85352C11.4016 10.7603 10.7097 11.469 9.81124 11.9796C8.91281 12.4902 7.88323 12.7455 6.72252 12.7455C5.89104 12.7455 5.09584 12.5837 4.33691 12.2601C3.57799 11.9364 2.92508 11.5011 2.37821 10.9542C1.83133 10.4074 1.39607 9.75447 1.07241 8.99554C0.748744 8.23662 0.586914 7.44142 0.586914 6.60994C0.586914 5.77847 0.748744 4.98327 1.07241 4.22434C1.39607 3.46541 1.83133 2.81251 2.37821 2.26563C2.92508 1.71876 3.57799 1.28349 4.33691 0.95983C5.09584 0.636169 5.89104 0.474339 6.72252 0.474339C8.3185 0.474339 9.68848 1.01005 10.8324 2.08148L9.16671 3.68025C8.51381 3.04967 7.69908 2.73438 6.72252 2.73438C6.03613 2.73438 5.40137 2.90738 4.81822 3.25336C4.23507 3.59934 3.7733 4.06948 3.4329 4.66379C3.09249 5.2581 2.92229 5.90682 2.92229 6.60994C2.92229 7.31307 3.09249 7.96178 3.4329 8.55609C3.7733 9.1504 4.23507 9.62054 4.81822 9.96653C5.40137 10.3125 6.03613 10.4855 6.72252 10.4855C7.18569 10.4855 7.61119 10.4213 7.99902 10.293C8.38686 10.1646 8.70633 10.0042 8.95745 9.81167C9.20857 9.61915 9.42759 9.40012 9.61454 9.15458C9.80148 8.90905 9.9382 8.67746 10.0247 8.45983C10.1112 8.2422 10.1712 8.03572 10.2047 7.84041H6.72252V5.73104H12.5149C12.5819 6.0826 12.6154 6.423 12.6154 6.75224ZM19.8726 5.73104V7.48885H18.1232V9.23829H16.3654V7.48885H14.6159V5.73104H16.3654V3.98159H18.1232V5.73104H19.8726Z" fill="#001A35"/>
</svg>
