<svg width="17" height="13" viewBox="0 0 17 13" fill="none" xmlns="http://www.w3.org/2000/svg">
<path d="M9.49351 5.06976V4.08204C9.49351 3.84766 9.40981 3.64677 9.2424 3.47936C9.07499 3.31195 8.87409 3.22825 8.63972 3.22825C8.40534 3.22825 8.20445 3.31195 8.03704 3.47936C7.86963 3.64677 7.78592 3.84766 7.78592 4.08204V9.20481C7.78592 10.1814 7.43436 11.0156 6.73124 11.7076C6.02811 12.3996 5.18269 12.7455 4.19496 12.7455C3.20166 12.7455 2.35484 12.3954 1.65451 11.695C0.954171 10.9947 0.604004 10.1479 0.604004 9.15458V6.92802H3.34954V9.1211C3.34954 9.36106 3.43324 9.56335 3.60066 9.72797C3.76807 9.89259 3.96896 9.9749 4.20333 9.9749C4.43771 9.9749 4.6386 9.89259 4.80601 9.72797C4.97342 9.56335 5.05713 9.36106 5.05713 9.1211V3.93137C5.05713 2.97713 5.41009 2.1624 6.116 1.48717C6.82192 0.811951 7.66316 0.474339 8.63972 0.474339C9.62186 0.474339 10.4645 0.814741 11.1676 1.49554C11.8707 2.17635 12.2223 2.99666 12.2223 3.95648V5.09487L10.5901 5.58037L9.49351 5.06976ZM13.9299 6.92802H16.6754V9.15458C16.6754 10.1479 16.3253 10.9947 15.6249 11.695C14.9246 12.3954 14.0778 12.7455 13.0845 12.7455C12.0967 12.7455 11.2513 12.3982 10.5482 11.7034C9.84507 11.0087 9.49351 10.1702 9.49351 9.18807V6.94476L10.5901 7.45537L12.2223 6.96987V9.22992C12.2223 9.46429 12.306 9.66379 12.4734 9.82841C12.6408 9.99303 12.8417 10.0753 13.0761 10.0753C13.3105 10.0753 13.5114 9.99303 13.6788 9.82841C13.8462 9.66379 13.9299 9.46429 13.9299 9.22992V6.92802Z" fill="#001A35"/>
</svg>
