<svg width="12" height="15" viewBox="0 0 12 15" fill="none" xmlns="http://www.w3.org/2000/svg">
<path d="M0.882812 5.10715C0.882812 4.50447 0.987444 3.93667 1.19671 3.40375C1.40597 2.87082 1.69475 2.40626 2.06306 2.01005C2.43136 1.61385 2.85547 1.27066 3.33538 0.980478C3.81529 0.690299 4.33147 0.472666 4.88393 0.327576C5.43638 0.182487 6 0.109942 6.57478 0.109942C7.45647 0.109942 8.27679 0.295489 9.03571 0.666583C9.79464 1.03768 10.4113 1.57758 10.8856 2.28628C11.3599 2.99499 11.5971 3.79577 11.5971 4.68863C11.5971 5.22434 11.5441 5.74889 11.4381 6.26229C11.332 6.77568 11.1646 7.26954 10.9358 7.74387C10.707 8.2182 10.428 8.63533 10.0988 8.99527C9.76953 9.3552 9.36495 9.64259 8.88504 9.85743C8.40513 10.0723 7.87779 10.1797 7.30301 10.1797C6.92355 10.1797 6.54688 10.0904 6.17299 9.91184C5.79911 9.73327 5.53125 9.48773 5.36942 9.17523C5.31362 9.39287 5.23549 9.70676 5.13504 10.1169C5.0346 10.5271 4.96903 10.7921 4.93834 10.9121C4.90764 11.0321 4.85045 11.2302 4.76674 11.5064C4.68304 11.7827 4.61049 11.9808 4.54911 12.1007C4.48772 12.2207 4.39844 12.3951 4.28125 12.6239C4.16406 12.8527 4.03571 13.0689 3.89621 13.2726C3.7567 13.4763 3.58371 13.7176 3.37723 13.9967L3.26004 14.0385L3.18471 13.9548C3.101 13.0787 3.05915 12.5541 3.05915 12.3811C3.05915 11.8678 3.11914 11.2916 3.23912 10.6526C3.3591 10.0137 3.54464 9.2115 3.79576 8.2461C4.04688 7.2807 4.19196 6.71429 4.23103 6.54688C4.05246 6.18416 3.96317 5.71262 3.96317 5.13226C3.96317 4.66909 4.10826 4.23383 4.39844 3.82646C4.68862 3.41909 5.05692 3.21541 5.50335 3.21541C5.84375 3.21541 6.10882 3.32841 6.29855 3.55442C6.48828 3.78042 6.58315 4.06641 6.58315 4.4124C6.58315 4.7807 6.46038 5.31363 6.21484 6.01117C5.96931 6.70871 5.84654 7.23048 5.84654 7.57646C5.84654 7.92802 5.9721 8.2196 6.22321 8.45118C6.47433 8.68277 6.77846 8.79856 7.1356 8.79856C7.44252 8.79856 7.72712 8.7288 7.9894 8.58929C8.25167 8.44979 8.4707 8.26005 8.64648 8.0201C8.82227 7.78014 8.97852 7.51508 9.11523 7.2249C9.25195 6.93472 9.35798 6.6264 9.43331 6.29995C9.50865 5.9735 9.56445 5.66379 9.60073 5.37082C9.637 5.07786 9.65513 4.80023 9.65513 4.53796C9.65513 3.57255 9.34961 2.8206 8.73856 2.2821C8.12751 1.74359 7.33091 1.47434 6.34877 1.47434C5.2327 1.47434 4.30078 1.83567 3.55301 2.55832C2.80525 3.28098 2.43136 4.19755 2.43136 5.30804C2.43136 5.55358 2.46624 5.79075 2.53599 6.01954C2.60575 6.24833 2.68108 6.4297 2.762 6.56362C2.84291 6.69755 2.91825 6.82451 2.988 6.94448C3.05776 7.06446 3.09263 7.14956 3.09263 7.19979C3.09263 7.35604 3.05078 7.55972 2.96708 7.81083C2.88337 8.06195 2.78013 8.18751 2.65737 8.18751C2.64621 8.18751 2.59877 8.17914 2.51507 8.1624C2.23047 8.07869 1.97796 7.92244 1.75753 7.69365C1.53711 7.46485 1.36691 7.20118 1.24693 6.90263C1.12695 6.60408 1.03627 6.30274 0.974888 5.99861C0.913504 5.69448 0.882812 5.39733 0.882812 5.10715Z" fill="#001A35"/>
</svg>
