<svg width="14" height="11" viewBox="0 0 14 11" fill="none" xmlns="http://www.w3.org/2000/svg">
<path d="M13.8775 1.52508C13.5036 2.07195 13.0516 2.53791 12.5215 2.92296C12.5271 3.00108 12.5299 3.11827 12.5299 3.27452C12.5299 3.99997 12.4238 4.72402 12.2118 5.44667C11.9997 6.16933 11.6775 6.86269 11.245 7.52675C10.8125 8.19081 10.2977 8.77815 9.70061 9.28875C9.10352 9.79935 8.38365 10.2067 7.54102 10.5108C6.69838 10.815 5.79715 10.967 4.83733 10.967C3.32506 10.967 1.94113 10.5625 0.685547 9.75331C0.880859 9.77563 1.09849 9.7868 1.33845 9.7868C2.59403 9.7868 3.71289 9.40175 4.69503 8.63166C4.1091 8.6205 3.58454 8.44053 3.12137 8.09176C2.6582 7.74299 2.34012 7.29796 2.16713 6.75666C2.35128 6.78456 2.52148 6.79851 2.67773 6.79851C2.91769 6.79851 3.15485 6.76782 3.38923 6.70644C2.76423 6.57809 2.24665 6.26699 1.8365 5.77312C1.42634 5.27926 1.22126 4.70588 1.22126 4.05298V4.0195C1.60073 4.23155 2.00809 4.34595 2.44336 4.36269C2.07506 4.11715 1.78209 3.79628 1.56445 3.40008C1.34682 3.00387 1.238 2.57418 1.238 2.11101C1.238 1.61994 1.36077 1.16514 1.60631 0.746617C2.28153 1.57809 3.10324 2.24355 4.07143 2.74299C5.03962 3.24243 6.07617 3.52005 7.18108 3.57586C7.13644 3.3638 7.11412 3.15733 7.11412 2.95644C7.11412 2.20867 7.37779 1.57111 7.90513 1.04377C8.43248 0.516427 9.07003 0.252756 9.8178 0.252756C10.5991 0.252756 11.2575 0.537354 11.7932 1.10655C12.4015 0.989363 12.9735 0.771729 13.5092 0.453649C13.3027 1.09539 12.9065 1.59204 12.3206 1.9436C12.8396 1.8878 13.3585 1.74829 13.8775 1.52508Z" fill="#001A35"/>
</svg>
