<svg width="19" height="19" viewBox="0 0 19 19" fill="none" xmlns="http://www.w3.org/2000/svg">
<path d="M9.12695 0.398926C4.14237 0.398926 0.101563 4.43973 0.101562 9.42432C0.101562 14.4089 4.14237 18.4497 9.12695 18.4497C14.1115 18.4497 18.1523 14.4089 18.1523 9.42432C18.1465 4.44214 14.1091 0.404728 9.12695 0.398926Z" fill="#0A0240" fill-opacity="0.103693"/>
<path d="M14.3367 6.5661L9.18846 13.5525C9.06568 13.7154 8.88259 13.8221 8.68034 13.8487C8.4781 13.8753 8.27364 13.8195 8.11293 13.6939L4.43659 10.7546C4.11217 10.495 4.05964 10.0216 4.31926 9.69716C4.57887 9.37275 5.05232 9.32022 5.37673 9.57983L8.44236 12.0325L13.1258 5.67635C13.2794 5.44589 13.5472 5.31848 13.8229 5.3447C14.0986 5.37091 14.3375 5.54651 14.4449 5.80178C14.5523 6.05705 14.5107 6.35069 14.3367 6.5661Z" fill="#24EBA5"/>
</svg>
