<svg width="19" height="19" viewBox="0 0 19 19" fill="none" xmlns="http://www.w3.org/2000/svg">
<path d="M9.31152 0.398926C4.32694 0.398926 0.286133 4.43973 0.286133 9.42432C0.286133 14.4089 4.32694 18.4497 9.31152 18.4497C14.2961 18.4497 18.3369 14.4089 18.3369 9.42432C18.3311 4.44214 14.2937 0.404728 9.31152 0.398926Z" fill="white" fill-opacity="0.3"/>
<path d="M14.5213 6.5661L9.37303 13.5525C9.25025 13.7154 9.06716 13.8221 8.86491 13.8487C8.66267 13.8753 8.45821 13.8195 8.2975 13.6939L4.62116 10.7546C4.29675 10.495 4.24421 10.0216 4.50383 9.69716C4.76344 9.37275 5.23689 9.32022 5.5613 9.57983L8.62693 12.0325L13.3104 5.67635C13.4639 5.44589 13.7317 5.31848 14.0074 5.3447C14.2831 5.37091 14.5221 5.54651 14.6295 5.80178C14.7369 6.05705 14.6953 6.35069 14.5213 6.5661Z" fill="white"/>
</svg>
