<svg width="16" height="16" viewBox="0 0 16 16" fill="none" xmlns="http://www.w3.org/2000/svg">
<path d="M11.6415 4.3583C11.3659 4.08277 10.9192 4.08277 10.6437 4.3583L4.35828 10.6437C4.08274 10.9192 4.08275 11.366 4.35828 11.6415C4.63382 11.917 5.08055 11.917 5.35609 11.6415L11.6415 5.35611C11.917 5.08057 11.917 4.63384 11.6415 4.3583Z" fill="#001A35" stroke="#001A35" stroke-width="0.3" stroke-linecap="round"/>
<path d="M5.35632 4.3583C5.08079 4.08277 4.63406 4.08277 4.35852 4.3583C4.08298 4.63384 4.08298 5.08057 4.35852 5.35611L10.6439 11.6415C10.9194 11.917 11.3662 11.917 11.6417 11.6415C11.9173 11.366 11.9173 10.9192 11.6417 10.6437L5.35632 4.3583Z" fill="#001A35" stroke="#001A35" stroke-width="0.3" stroke-linecap="round"/>
</svg>
